# xmcd
#
# Track frame offsets:
#	150
#	19050
#	35607
#	55655
#	78205
#	102335
#	123905
#	140092
#	153617
#	176247
#	193080
#
# Disc length: 2794 seconds
#
# Revision: 1
# Processed by: cddbd v1.5.1PL0 Copyright (c) Steve Scherf et al.
# Submitted via: CDex 1.50Beta5
#
DISCID=940ae80b
DTITLE=GALAPAGOS - HONEY PIE
DYEAR=1993
DGENRE=Rock
TTITLE0=COMING DOWN
TTITLE1=God knows I do
TTITLE2=LOVE PLEASURE
TTITLE3=HONEY PIE
TTITLE4=SILENT SIDE
TTITLE5=SLOW DIVE
TTITLE6=MY LOVE AGAIN
TTITLE7=I LOVE YOU
TTITLE8=I eat a Candy
TTITLE9=夢の城
TTITLE10=Sanctuary
EXTD=
EXTT0=
EXTT1=
EXTT2=
EXTT3=
EXTT4=
EXTT5=
EXTT6=
EXTT7=
EXTT8=
EXTT9=
EXTT10=
PLAYORDER=
